<svg width="281" height="234" viewBox="0 0 281 234" fill="none" xmlns="http://www.w3.org/2000/svg">
<rect width="66.071" height="66.071" rx="7" fill="#F6F6F7"/>
<path d="M26.6172 12.7848C27.3036 18.1315 31.6453 18.8304 33.0355 18.8304V53.9849H19.0551C18.5028 53.9849 18.0551 53.5371 18.0551 52.9849V28.5128C18.0551 27.8542 17.4295 27.3755 16.7938 27.5476L13.819 28.3529C13.301 28.4932 12.7647 28.1996 12.6037 27.6878L9.9424 19.2278C9.78744 18.7352 10.033 18.2056 10.5092 18.0057L25.1383 11.8629C25.7973 11.5862 26.5262 12.0758 26.6172 12.7848Z" fill="#7BCFE9"/>
<path d="M39.4538 12.7848C38.7674 18.1315 34.4258 18.8304 33.0355 18.8304V53.9849H47.0159C47.5682 53.9849 48.0159 53.5371 48.0159 52.9849V28.5128C48.0159 27.8542 48.6415 27.3755 49.2772 27.5476L52.2521 28.3529C52.77 28.4932 53.3063 28.1996 53.4673 27.6878L56.1286 19.2278C56.2836 18.7352 56.038 18.2056 55.5619 18.0057L40.9327 11.8629C40.2737 11.5862 39.5448 12.0758 39.4538 12.7848Z" fill="#7BCFE9"/>
<path d="M33.0355 18.1292C37.2645 18.1292 38.4411 15.1401 38.642 12.2795C38.6806 11.7286 38.228 11.2804 37.6757 11.2804H28.3953C27.843 11.2804 27.3904 11.7286 27.429 12.2795C27.6299 15.1401 28.8065 18.1292 33.0355 18.1292Z" fill="#54B7D6"/>
<path d="M39.9649 29.8125C41.1219 29.8125 42.0599 28.8746 42.0599 27.7176V26.2838C42.0599 26.0077 41.836 25.7838 41.5599 25.7838H38.37C38.0939 25.7838 37.87 26.0077 37.87 26.2838V27.7176C37.87 28.8746 38.8079 29.8125 39.9649 29.8125Z" fill="white"/>
<rect y="71.7112" width="66.071" height="90.2433" rx="7" fill="#F6F6F7"/>
<path d="M49.5096 144.87H40.5217L33.142 103.587C33.0913 103.303 32.6815 103.303 32.6309 103.587L25.2512 144.87H16.2631L17.9168 97.9672V95.1929L18.2125 89.5823H47.62L47.8561 93.4317V97.9672L49.5096 144.87Z" fill="#57636F"/>
<path d="M40.4741 144.87L41.0326 147.994C41.1431 148.612 41.6811 149.063 42.3093 149.063H48.265C48.9992 149.063 49.5871 148.454 49.5611 147.72L49.4607 144.87H40.4741Z" fill="#ACBAC3"/>
<path d="M25.2027 144.87L24.6442 147.994C24.5337 148.612 23.9957 149.063 23.3675 149.063H17.4118C16.6776 149.063 16.0898 148.454 16.1157 147.72L16.2162 144.87H25.2027Z" fill="#ACBAC3"/>
<path d="M49.4607 144.87H46.3141L46.462 149.063H48.2651C48.9993 149.063 49.5871 148.454 49.5612 147.72L49.4607 144.87Z" fill="#7A8D9C"/>
<path d="M47.1116 85.9224V89.6678H18.5652V85.9224C18.5652 85.1936 19.1298 84.6031 19.8266 84.6031H29.6887H32.8384H35.9882H45.8502C46.5471 84.6031 47.1116 85.1936 47.1116 85.9224Z" fill="#57636F"/>
<path d="M16.3644 144.87H19.511L19.3632 149.063H17.5601C16.8258 149.063 16.238 148.454 16.264 147.72L16.3644 144.87Z" fill="#7A8D9C"/>
<path d="M22.7091 84.6031L22.0043 87.2595C21.557 88.9454 19.9494 90.1282 18.1051 90.1282H18.1048L18.3115 84.6031H22.7091Z" fill="#ACBAC3"/>
<path d="M42.9678 84.6031L43.6725 87.2595C44.1198 88.9454 45.7274 90.1282 47.5718 90.1282H47.572L47.3654 84.6031H42.9678Z" fill="#ACBAC3"/>
<path d="M18.1051 90.1282H18.1048L18.3025 84.6031H20.407L20.2319 89.4953C19.6176 89.8977 18.8835 90.1282 18.1051 90.1282Z" fill="#7A8D9C"/>
<path d="M47.5718 90.1282H47.572L47.3744 84.6031H45.2699L45.445 89.4953C46.0592 89.8977 46.7934 90.1282 47.5718 90.1282Z" fill="#7A8D9C"/>
<circle cx="33.0686" cy="86.2146" r="0.690638" fill="#F6F6F7"/>
<rect x="73.3227" width="66.071" height="90.2433" rx="7" fill="#F6F6F7"/>
<path d="M96.4826 12.8919H97.5987C98.151 12.8919 98.5987 13.3396 98.5987 13.8919V18.7226C98.5987 19.3405 99.1574 19.8048 99.7752 19.82C102.961 19.8987 105.462 22.4072 106.389 23.7982V75.9925C102.494 78.3296 96.2617 77.5506 93.9246 74.4345C87.6924 75.2135 85.3554 72.3571 83.7973 70.5394C88.2118 61.7105 97.3523 43.2737 98.5987 40.1576C100.157 36.2625 98.5987 32.3674 97.8197 30.8093C97.0407 29.2513 95.4826 26.1352 95.4826 23.0191V13.8918C95.4826 13.3395 95.9304 12.8919 96.4826 12.8919Z" fill="#E4126B"/>
<path d="M115.516 12.8919H114.4C113.848 12.8919 113.4 13.3396 113.4 13.8919V18.7226C113.4 19.3405 112.841 19.8048 112.224 19.82C109.037 19.8987 106.537 22.4072 105.61 23.7982V75.9925C109.505 78.3296 115.737 77.5506 118.074 74.4345C124.306 75.2135 126.643 72.3571 128.201 70.5394C123.787 61.7105 114.647 43.2737 113.4 40.1576C111.842 36.2625 113.4 32.3674 114.179 30.8093C114.958 29.2513 116.516 26.1352 116.516 23.0191V13.8918C116.516 13.3395 116.068 12.8919 115.516 12.8919Z" fill="#E4126B"/>
<rect x="147" y="1" width="50" height="49" rx="7" fill="#F6F6F7"/>
<path d="M178.88 14C176.24 21.392 166.193 25.6181 161.5 26.5714C162.286 28.1428 163.071 29.7143 164.643 31.6H189V15.76L178.88 14Z" fill="#018790"/>
<path d="M156 31.6H189V34C189 35.1046 188.105 36 187 36H158C156.895 36 156 35.1046 156 34V31.6Z" fill="white"/>
<path d="M161.5 26.5714C158.462 26.5714 156 29.0338 156 32.0714H167C167 29.0338 164.538 26.5714 161.5 26.5714Z" fill="white"/>
<path d="M167 24.6857L168.402 24.0728L169.746 27.148C169.916 27.5351 169.739 27.9861 169.352 28.1554C168.965 28.3246 168.514 28.148 168.345 27.7609L167 24.6857Z" fill="white"/>
<path d="M169.357 23.4286L170.689 22.6754L172.341 25.5968C172.549 25.9645 172.42 26.4312 172.052 26.6392C171.684 26.8472 171.217 26.7177 171.01 26.35L169.357 23.4286Z" fill="white"/>
<path d="M171.84 21.9198L173.092 21.04L175.022 23.7859C175.265 24.1315 175.181 24.6086 174.836 24.8516C174.49 25.0945 174.013 25.0113 173.77 24.6656L171.84 21.9198Z" fill="white"/>
<path d="M173.6 20.7276L174.751 19.72L176.962 22.2454C177.24 22.5633 177.208 23.0466 176.89 23.3248C176.572 23.6031 176.089 23.571 175.811 23.2531L173.6 20.7276Z" fill="white"/>
<path d="M175.36 19.2029L176.46 18.1029L179.137 20.2146C179.472 20.4789 179.527 20.9662 179.258 21.2981C178.995 21.6234 178.52 21.6774 178.19 21.4194L175.36 19.2029Z" fill="white"/>
<path d="M177.12 17.3L178 15.98L180.753 18.2176C181.075 18.479 181.132 18.9481 180.882 19.2786C180.621 19.6229 180.129 19.6855 179.79 19.4173L177.12 17.3Z" fill="white"/>
<circle cx="183.28" cy="26.32" r="2.63999" fill="white"/>
<rect x="147" y="113" width="50" height="48" rx="7" fill="#F6F6F7"/>
<path d="M157.233 147.635C158.492 146.171 165.531 143.67 166.33 143.389C166.434 143.353 166.546 143.352 166.652 143.388C167.575 143.705 168.383 143.865 169.125 143.879C169.775 143.898 170.728 143.777 171.52 143.162C172.248 142.597 172.696 141.647 173.059 140.799C173.557 139.636 174.087 138.474 174.6 137.351L175.12 136.211C175.849 134.601 176.473 133.131 177.026 131.715C178.171 128.782 179.985 126.619 180.964 125.59C181.661 124.859 182.802 124.799 183.562 125.455C183.76 125.625 183.952 125.8 184.14 125.981C185.344 127.136 186.149 128.277 186.604 129.47C187.211 131.06 186.989 132.888 186.793 134.501L186.784 134.576C186.6 136.094 186.483 137.654 186.38 139.03C186.25 140.774 186.151 142.541 186.085 144.282L186.05 145.143C186.025 145.745 185.999 146.353 185.988 146.946C185.982 147.26 185.984 148.173 185.986 148.85L185.988 149.489C185.988 149.771 185.765 150 185.488 150H183.489C183.213 150 182.989 149.748 182.989 149.466C182.988 149.05 182.979 143.244 182.989 140.806C182.99 140.523 182.994 140.274 182.998 140.048C183.015 139.037 183.023 138.529 182.722 137.355C182.586 136.825 182.347 136.386 182.127 136.263C182.077 136.235 182.015 136.214 181.91 136.249C181.498 136.384 181.134 137.023 180.889 137.453C180.563 138.024 180.259 138.691 179.93 139.55C179.916 139.585 179.881 139.684 179.828 139.835C178.124 144.599 176.875 147.42 176.116 148.22C175.041 149.351 173.522 150 171.948 150H165.639C162 149.956 157.56 149.664 157.065 148.529C157.004 148.389 156.899 148.023 157.233 147.635Z" fill="#FF809F"/>
<rect x="202" width="79" height="79" rx="7" fill="#F6F6F7"/>
<path d="M244.197 36.064H269.126V58.0695C269.126 58.6218 268.678 59.0695 268.126 59.0695H245.197C244.645 59.0695 244.197 58.6218 244.197 58.0695V36.064Z" fill="#DAF0F7"/>
<path d="M244.197 33.2291C244.197 32.6768 244.645 32.2291 245.197 32.2291H268.126C268.678 32.2291 269.126 32.6768 269.126 33.2291V36.0639H244.197V33.2291Z" fill="#7BCFE9"/>
<path d="M252.826 45.6464C254.415 45.6464 255.703 44.3586 255.703 42.77C255.703 41.1814 254.415 39.8936 252.826 39.8936C251.238 39.8936 249.95 41.1814 249.95 42.77C249.95 44.3586 251.238 45.6464 252.826 45.6464Z" fill="#FFA771"/>
<path d="M262.414 45.6499C264.003 45.6499 265.291 44.3621 265.291 42.7735C265.291 41.1849 264.003 39.8971 262.414 39.8971C260.826 39.8971 259.538 41.1849 259.538 42.7735C259.538 44.3621 260.826 45.6499 262.414 45.6499Z" fill="#FC7A9B"/>
<path d="M252.826 55.2343C254.415 55.2343 255.703 53.9465 255.703 52.358C255.703 50.7694 254.415 49.4816 252.826 49.4816C251.238 49.4816 249.95 50.7694 249.95 52.358C249.95 53.9465 251.238 55.2343 252.826 55.2343Z" fill="#C7DC5B"/>
<path d="M262.414 55.2378C264.003 55.2378 265.291 53.95 265.291 52.3615C265.291 50.7729 264.003 49.4851 262.414 49.4851C260.826 49.4851 259.538 50.7729 259.538 52.3615C259.538 53.95 260.826 55.2378 262.414 55.2378Z" fill="#D1A6F7"/>
<path d="M248.991 37.9814H241.321V20.7247C241.321 20.3685 241.42 20.0195 241.607 19.7165C241.794 19.4136 242.062 19.1688 242.381 19.0095C242.699 18.8503 243.056 18.7828 243.411 18.8148C243.765 18.8468 244.104 18.9769 244.389 19.1906L248.224 22.067C248.462 22.2456 248.655 22.4772 248.789 22.7435C248.922 23.0097 248.991 23.3033 248.991 23.601V37.9814Z" fill="#E4126B"/>
<path d="M248.991 37.9779H241.321L240.362 41.8131V57.1554C240.362 57.664 240.564 58.1517 240.924 58.5114C241.283 58.871 241.771 59.073 242.28 59.073H248.032C248.541 59.073 249.029 58.871 249.388 58.5114C249.748 58.1517 249.95 57.664 249.95 57.1554V41.8127L248.991 37.9779Z" fill="#FED883"/>
<path d="M240.362 41.8127H249.95C249.95 41.8147 248.991 37.9795 248.991 37.9795H241.321L240.362 41.8127Z" fill="#FEC138"/>
<path d="M241.321 30.3092H248.991V37.9795H241.321V30.3092Z" fill="#FED883"/>
<path d="M227.898 56.193C235.841 56.193 242.28 49.5401 242.28 41.3335C242.28 33.1268 235.841 26.474 227.898 26.474C219.955 26.474 213.516 33.1268 213.516 41.3335C213.516 49.5401 219.955 56.193 227.898 56.193Z" fill="#FF809F"/>
<path d="M227.898 51.3992C233.722 51.3992 238.444 46.6772 238.444 40.8524C238.444 35.0277 233.722 30.3057 227.898 30.3057C222.073 30.3057 217.351 35.0277 217.351 40.8524C217.351 46.6772 222.073 51.3992 227.898 51.3992Z" fill="white"/>
<path d="M213.516 51.3992H242.28V57.1519C242.28 57.6605 242.077 58.1482 241.718 58.5079C241.358 58.8675 240.871 59.0695 240.362 59.0695H215.433C214.925 59.0695 214.437 58.8675 214.077 58.5079C213.718 58.1482 213.516 57.6605 213.516 57.1519V51.3992Z" fill="#F55F84"/>
<path d="M224.062 51.3992H231.733V53.3168C231.733 53.8253 231.531 54.3131 231.171 54.6727C230.812 55.0323 230.324 55.2343 229.815 55.2343H225.98C225.471 55.2343 224.984 55.0323 224.624 54.6727C224.264 54.3131 224.062 53.8253 224.062 53.3168V51.3992Z" fill="#FFC5D3"/>
<rect x="73.0157" y="96.6893" width="66.071" height="65.2653" rx="7" fill="#F6F6F7"/>
<path d="M124.068 117.757C121.262 112.187 117.627 110.331 115.079 109.764C114.516 109.637 113.944 109.56 113.369 109.533C112.933 109.51 112.495 109.529 112.063 109.591H111.649C111.649 112.922 108.948 115.622 105.618 115.622C102.287 115.622 99.5864 112.922 99.5864 109.591C99.429 109.591 99.2874 109.591 99.1721 109.591C98.7397 109.529 98.3022 109.512 97.8662 109.539C97.2905 109.561 96.7182 109.636 96.1565 109.764C93.6234 110.331 89.989 112.187 87.1885 117.767L85.185 121.124L91.793 126.657L92.8419 125.01V126.861H118.435V125.01L119.484 126.657L126.118 121.124L124.068 117.757Z" fill="#126881"/>
<path d="M92.842 125.188V137.723C92.842 137.723 101.092 140.691 100.955 148.537H110.322C110.191 140.67 118.435 137.723 118.435 137.723V125.188H92.842Z" fill="#FED883"/>
<path d="M115.078 109.764V126.977H113.385V109.534C113.955 109.561 114.522 109.638 115.078 109.764Z" fill="#FED883"/>
<path d="M97.8923 109.539V126.977H96.1984V109.764C96.7549 109.637 97.3219 109.562 97.8923 109.539Z" fill="#FED883"/>
<path d="M99.4081 126.977V134.686C99.4081 135.503 100.07 136.165 100.887 136.165H110.39C111.207 136.165 111.869 135.503 111.869 134.686V126.977H99.4081Z" fill="#FF809F"/>
<rect x="147" y="57" width="50" height="48" rx="7" fill="#F6F6F7"/>
<path d="M168.007 76.334C167.813 76.334 167.655 76.1764 167.655 75.982C167.655 71.1881 167.879 68.5906 169.063 68.5906C169.997 68.5906 170.471 71.0776 170.471 75.982C170.471 76.1764 170.313 76.334 170.119 76.334C169.924 76.334 169.767 76.1764 169.767 75.982C169.767 73.0015 169.463 69.5979 169.012 69.2818C168.743 69.3923 168.359 70.632 168.359 75.982C168.359 76.1764 168.201 76.334 168.007 76.334Z" fill="#F37521"/>
<path d="M177.158 76.334C176.964 76.334 176.806 76.1764 176.806 75.982C176.806 70.632 176.423 69.3924 176.102 69.2945C175.704 69.5979 175.399 73.0015 175.399 75.982C175.399 76.1764 175.241 76.334 175.047 76.334C174.852 76.334 174.695 76.1764 174.695 75.982C174.695 71.0776 175.168 68.5906 176.102 68.5906C177.287 68.5906 177.51 71.1881 177.51 75.982C177.51 76.1764 177.353 76.334 177.158 76.334Z" fill="#F37521"/>
<path d="M172.467 81.3535C171.333 80.3215 168.384 77.341 168.359 75.9767C168.356 75.7823 168.196 75.6274 168.001 75.6306C167.943 75.6315 167.885 75.6472 167.834 75.6761C165.955 76.7434 164.807 78.7496 164.839 80.91C164.839 82.7452 166.468 84.0777 168.711 84.0777C170.924 84.0777 172.455 81.9075 172.52 81.8145C172.621 81.6694 172.598 81.4722 172.467 81.3535Z" fill="#FFA771"/>
<path d="M177.332 75.6759C177.162 75.5802 176.948 75.6398 176.852 75.809C176.823 75.8601 176.807 75.9177 176.806 75.9764C176.785 77.3428 173.833 80.3212 172.698 81.3532C172.567 81.4719 172.545 81.6691 172.645 81.8143C172.71 81.9072 174.242 84.0775 176.454 84.0775C178.698 84.0775 180.326 82.7449 180.326 80.9097C180.358 78.7493 179.21 76.7431 177.332 75.6759Z" fill="#FFA771"/>
<path d="M172.935 81.9656H172.231C172.036 81.9656 171.879 81.808 171.879 81.6136C171.879 81.4192 172.036 81.2616 172.231 81.2616H172.935C173.129 81.2616 173.287 81.4192 173.287 81.6136C173.287 81.808 173.129 81.9656 172.935 81.9656Z" fill="#F37521"/>
<path d="M180.294 88.1285L179.62 86.7387C179.55 86.5936 179.392 86.5181 179.239 86.5566C178.444 86.7588 177.768 86.9541 177.152 87.132C175.679 87.6405 174.138 87.9119 172.585 87.9367C171.031 87.9124 169.49 87.6413 168.016 87.1327C167.403 86.9548 166.727 86.7588 165.929 86.5573C165.776 86.5188 165.618 86.5943 165.548 86.7394L164.874 88.1292C164.791 88.3008 164.858 88.5095 165.025 88.5953C165.047 88.6068 165.07 88.6157 165.094 88.6219C169.09 89.6427 171.573 91.9101 171.573 94.5389C171.573 94.7308 171.723 94.8864 171.909 94.8864H173.256C173.442 94.8864 173.593 94.7308 173.593 94.5389C173.593 91.9101 176.076 89.6434 180.071 88.6219C180.251 88.5757 180.362 88.3873 180.317 88.2011C180.311 88.1762 180.302 88.1521 180.291 88.1292L180.294 88.1285Z" fill="#FFA771"/>
<rect x="202" y="84" width="79" height="77" rx="7" fill="#F6F6F7"/>
<path d="M265.455 133.567C265.41 133.516 265.345 133.485 265.276 133.485H219.283C219.214 133.485 219.149 133.515 219.105 133.567C219.06 133.619 219.04 133.688 219.05 133.756C219.056 133.799 219.75 138.058 225.135 138.058H259.425C264.809 138.058 265.502 133.799 265.51 133.756C265.519 133.688 265.499 133.619 265.455 133.567ZM245.739 136.566H238.82V134.976H245.739V136.566Z" fill="#54B7D6"/>
<path d="M224.061 131.829H260.498C261.025 131.829 261.453 131.402 261.453 130.875V108.495C261.453 107.969 261.025 107.541 260.498 107.541H224.061C223.534 107.541 223.106 107.969 223.106 108.495V130.875C223.106 131.402 223.534 131.829 224.061 131.829ZM226.446 110.881H258.113V128.49H226.446V110.881Z" fill="#54B7D6"/>
<rect y="168" width="66" height="66" rx="7" fill="#F6F6F7"/>
<path d="M40.2328 183H24.9836C23.3267 183 21.9836 184.337 21.9836 185.994V205.634H43.2328V186C43.2328 184.343 41.8896 183 40.2328 183Z" fill="#7BCFE9"/>
<path d="M24.2677 202.56C31.5207 200.656 35.588 200.725 42.8405 202.56V210.04H24.2677V202.56Z" fill="#126881"/>
<rect x="24.5676" y="209.486" width="17.973" height="6.62162" fill="#54B7D6"/>
<path d="M22.6757 218V215.162H17.946V218H22.6757Z" fill="#57636F"/>
<path d="M47.2703 218V215.162H42.5405V218H47.2703Z" fill="#57636F"/>
<path d="M17 199.716C17 198.059 18.3431 196.716 20 196.716H22.0752C23.732 196.716 25.0752 198.059 25.0752 199.716V216.097H17V199.716Z" fill="#54B7D6"/>
<path d="M40.6487 199.716C40.6487 198.059 41.9918 196.716 43.6487 196.716H45.7238C47.3807 196.716 48.7238 198.059 48.7238 199.716V216.097H40.6487V199.716Z" fill="#54B7D6"/>
<rect x="73" y="168" width="66" height="66" rx="7" fill="#F6F6F7"/>
<path d="M110.667 191.286C110.174 191.286 109.775 191.685 109.775 192.178H108.081C107.484 191.919 105.419 191.029 103.173 190.15C97.6807 188 96.4685 188 96.0701 188C93.2744 188 91 190.275 91 193.07C91 195.866 93.2744 198.14 96.0701 198.14C96.4685 198.14 97.6807 198.14 103.173 195.99C105.419 195.111 107.484 194.222 108.081 193.962H109.775C109.775 194.455 110.174 194.854 110.667 194.854H119.668C120.653 194.854 121.452 194.056 121.452 193.07C121.452 192.085 120.653 191.286 119.668 191.286L110.667 191.286ZM96.0701 189.784C97.1163 189.784 100.35 190.94 103.45 192.178H92.9084C93.2982 190.798 94.5675 189.784 96.0701 189.784ZM96.0701 196.356C94.5675 196.356 93.2982 195.342 92.9084 193.962H103.451C100.35 195.201 97.1167 196.356 96.0701 196.356Z" fill="#FFA771"/>
<path d="M94.4298 199.42C93.9371 199.42 93.5377 199.819 93.5377 200.312C93.5377 207.308 99.2297 213 106.226 213C113.222 213 118.914 207.308 118.914 200.312C118.914 199.819 118.515 199.42 118.022 199.42H94.4298Z" fill="#FFA771"/>
<rect x="147" y="168" width="134" height="66" rx="7" fill="#F6F6F7"/>
<path d="M237.042 206.005L237.042 196.363C237.042 195.875 237.437 195.48 237.925 195.48C238.412 195.48 238.808 195.875 238.808 196.363L238.808 206.005C238.808 206.492 238.413 206.887 237.925 206.887C237.437 206.887 237.042 206.492 237.042 206.005Z" fill="#FED883"/>
<path d="M240.137 206.004L240.137 196.363C240.137 195.875 240.532 195.48 241.02 195.48C241.507 195.48 241.902 195.875 241.902 196.363L241.902 206.004C241.902 206.492 241.507 206.887 241.02 206.887C240.532 206.887 240.137 206.492 240.137 206.004Z" fill="#FED883"/>
<path d="M243.232 206.005L243.232 196.363C243.232 195.875 243.627 195.48 244.115 195.48C244.602 195.48 244.997 195.875 244.997 196.363L244.997 206.005C244.997 206.492 244.602 206.887 244.115 206.887C243.627 206.887 243.232 206.492 243.232 206.005Z" fill="#FED883"/>
<path d="M219.769 203.918L219.77 198.45C219.578 195.792 218.502 191.633 214.471 190.413C209.723 188.97 208.534 192.435 204.33 191.81C201.212 191.345 197.237 185.103 188.989 187.56C183.314 189.251 181.585 195.33 181.582 200.689L181.584 201.185L181.583 201.68C181.583 207.038 183.314 213.117 188.989 214.807C197.238 217.264 201.211 211.025 204.329 210.559C208.532 209.933 209.724 213.399 214.471 211.955C218.502 210.735 219.578 206.575 219.769 203.918Z" fill="#FFD1B5"/>
<path d="M191.149 207.716C190.989 207.557 190.89 207.336 190.89 207.092L190.89 195.275C190.89 194.787 191.285 194.392 191.773 194.392C192.261 194.392 192.655 194.788 192.656 195.275L192.655 207.092C192.655 207.58 192.26 207.975 191.773 207.975C191.529 207.975 191.308 207.876 191.149 207.716Z" fill="#D79E7B"/>
<path d="M206.696 205.915C204.086 205.919 201.962 203.793 201.964 201.183C201.96 198.575 204.083 196.449 206.693 196.452C209.304 196.452 211.43 198.576 211.433 201.181C211.431 203.794 209.303 205.921 206.696 205.915Z" fill="#D79E7B"/>
<path d="M246.755 201.184C246.755 198.636 244.997 197.54 244.997 197.54L237.042 197.54L233.897 198.723L231.541 201.184L233.894 203.645L237.042 204.827L244.997 204.827C244.997 204.828 246.755 203.732 246.755 201.184Z" fill="#D79E7B"/>
<path d="M233.897 198.723L210.426 198.276L210.428 204.092L233.894 203.645L233.897 198.723Z" fill="#B9805C"/>
</svg>
