<svg width="259" height="236" viewBox="0 0 259 236" fill="none" xmlns="http://www.w3.org/2000/svg">
<path d="M18.5 113H1C0.447715 113 0 113.448 0 114V207.5C0 208.052 0.447716 208.5 1 208.5H257.992C258.544 208.5 258.992 208.052 258.992 207.5V63.1885C258.992 62.7739 258.736 62.4023 258.348 62.2543L232.857 52.5182C232.202 52.2682 231.5 52.7516 231.5 53.4524V96C231.5 96.5523 231.052 97 230.5 97H211C210.448 97 210 96.5523 210 96V71.52C210 70.8012 209.264 70.3171 208.604 70.6017L181.604 82.2396C181.238 82.3976 181 82.7586 181 83.1579V96C181 96.5523 180.552 97 180 97H164C163.448 97 163 96.5523 163 96V43C163 42.4477 162.552 42 162 42H155.5C154.948 42 154.5 41.5523 154.5 41V31.5C154.5 30.9477 154.052 30.5 153.5 30.5H147.5C146.948 30.5 146.5 30.0523 146.5 29.5V15C146.5 14.4477 146.052 14 145.5 14H144C143.448 14 143 13.5523 143 13V1C143 0.447716 142.552 0 142 0H140.5C139.948 0 139.5 0.447715 139.5 1V13C139.5 13.5523 139.052 14 138.5 14H137C136.448 14 136 14.4477 136 15V29.5C136 30.0523 135.552 30.5 135 30.5H128C127.448 30.5 127 30.9477 127 31.5V41C127 41.5523 126.552 42 126 42H120C119.448 42 119 42.4477 119 43V81.5C119 82.0523 118.552 82.5 118 82.5H97C96.4477 82.5 96 82.0523 96 81.5V52.6995C96 52.2794 95.7375 51.9042 95.3429 51.7601L65.8429 40.9903C65.1906 40.7521 64.5 41.2351 64.5 41.9296V102.5C64.5 103.052 64.0523 103.5 63.5 103.5H45.5C44.9477 103.5 44.5 103.052 44.5 102.5V83.5C44.5 82.9477 44.0523 82.5 43.5 82.5H20.5C19.9477 82.5 19.5 82.9477 19.5 83.5V112C19.5 112.552 19.0523 113 18.5 113Z" fill="#F6F6F7"/>
<rect x="67" y="232.5" width="59" height="3" rx="1.5" fill="#ACBAC3"/>
<rect x="134" y="232.5" width="40" height="3" rx="1.5" fill="#ACBAC3"/>
<rect x="33" y="232.5" width="26" height="3" rx="1.5" fill="#ACBAC3"/>
<rect x="17" y="232.5" width="8" height="3" rx="1.5" fill="#ACBAC3"/>
<rect x="204" y="232.5" width="8" height="3" rx="1.5" fill="#ACBAC3"/>
<rect x="220" y="232.5" width="5" height="3" rx="1.5" fill="#ACBAC3"/>
<rect x="182" y="232.5" width="14" height="3" rx="1.5" fill="#ACBAC3"/>
<circle cx="187.634" cy="211.573" r="21.3665" fill="#721D47"/>
<circle cx="187.633" cy="211.573" r="13.4162" fill="white"/>
<circle cx="187.634" cy="211.573" r="7.45342" fill="#721D47"/>
<rect x="186.143" y="197.163" width="2.98137" height="12.9193" fill="#721D47"/>
<rect x="202.914" y="218.171" width="2.98137" height="12.9193" transform="rotate(118.179 202.914 218.171)" fill="#721D47"/>
<rect width="2.98137" height="12.9193" transform="matrix(0.472228 0.881476 0.881476 -0.472228 172.23 218.171)" fill="#721D47"/>
<path d="M159.311 135.627C156.528 136.024 154.176 136.455 153.348 137.117V142.086C155.335 142.086 157.323 141.092 158.317 139.602C159.311 138.111 161.795 138.111 163.286 139.105C164.776 140.099 166.267 139.105 165.77 138.111C165.273 137.117 162.789 135.13 159.311 135.627Z" fill="#FFF2D1"/>
<path d="M140.429 180.766C141.919 176.79 137.944 173.809 135.46 173.809L129 154.927C135.128 158.571 149.571 167.051 152.354 169.834C155.832 173.312 153.845 177.784 152.354 182.753C151.161 186.728 147.882 193.188 143.41 200.144L136.95 199.151C138.11 192.857 139.236 183.946 140.429 180.766Z" fill="#04556C"/>
<rect x="54.0402" y="188.156" width="14.0824" height="5.96273" rx="2" transform="rotate(-53.6075 54.0402 188.156)" fill="#721D47"/>
<path d="M66.8882 176.294C71.2609 170.828 76.8261 170.993 79.3106 170.828H83.7826L50.4907 205.113L49 202.629C53.9689 195.507 63.7081 180.269 66.8882 176.294Z" fill="#FBB017"/>
<path d="M156.461 156.072L165.77 150.952L180.18 177.784L162.292 208.592L153.845 215.051C153.845 215.051 92.2298 216.542 90.7391 214.058C89.2484 211.573 87.2609 205.61 84.7764 200.144C82.2919 194.679 112.106 174.306 112.106 174.306L131.981 180.766C131.319 182.753 129.696 187.722 128.503 191.697C127.012 196.666 131.484 199.151 135.46 199.151H153.845C164.279 199.151 161.298 183.747 160.304 179.772C159.537 176.703 157.166 163.825 155.959 157.123C155.883 156.7 156.085 156.279 156.461 156.072Z" fill="#FBBA32"/>
<path d="M168.74 146.698C171.845 145.741 173.587 142.447 172.63 139.341C171.672 136.236 168.379 134.494 165.273 135.452L168.74 146.698Z" fill="white"/>
<path d="M151.487 146.147L155.4 155.396C155.631 155.942 156.284 156.168 156.804 155.882L166.598 150.478C168.71 149.313 169.689 146.807 168.926 144.519L165.77 135.051C162.789 134.554 159.311 135.548 156.329 137.536C154.897 138.491 153.393 139.972 152.204 141.289C151.012 142.611 150.793 144.507 151.487 146.147Z" fill="#FED883"/>
<path d="M88.3295 170.331C76.113 170.331 64.9656 182.489 59.4778 191.24C57.9572 193.664 59.1864 196.715 61.933 197.52C73.8461 201.01 93.0915 203.948 102.558 205.007C116.24 206.538 124.348 190.234 118.774 181.048C113.2 171.862 102.051 170.331 97.4905 170.331H88.3295Z" fill="#FFF0CD"/>
<path d="M85.7703 170.828C74.2745 170.828 65.0019 181.73 59.91 190.14C58.2452 192.889 59.9495 196.29 63.1018 196.918C74.8404 199.258 92.7169 202.628 101.671 203.623C115.087 205.113 123.037 190.207 117.572 181.263C112.106 172.318 101.174 170.828 96.7019 170.828H85.7703Z" fill="#FED883"/>
<rect x="158.606" y="132.409" width="4.54825" height="0.953656" rx="0.476828" transform="rotate(76.9975 158.606 132.409)" fill="#721D47"/>
<path d="M77.3292 171.325H97.6956C107.634 171.325 111.609 175.3 123.037 178.778C134.466 182.256 137.447 182.256 137.447 172.318C137.447 162.381 120.056 161.884 114.59 161.884H80.3228C78.1137 161.884 76.3292 163.674 76.3292 165.884V170.325C76.3292 170.877 76.7769 171.325 77.3292 171.325Z" fill="#721D47"/>
<ellipse cx="157.379" cy="129.78" rx="3.05417" ry="4.58126" transform="rotate(-13.3772 157.379 129.78)" fill="#721D47"/>
<rect x="145.398" y="142.505" width="11.9255" height="3.97516" rx="1.98758" fill="#721D47"/>
<path d="M186.64 172.815V177.784C183.162 177.784 181.671 180.269 180.677 181.759L180.677 181.76C179.682 183.252 166.764 202.629 162.292 209.089C158.714 214.256 155.335 217.536 150.366 217.536H95.7081C91.7329 217.536 89.5797 212.567 89.2485 210.579H150.366C155.832 210.579 156.329 209.089 159.807 205.61C163.286 202.132 169.745 191.2 172.23 185.735C174.714 180.269 172.23 173.312 171.236 171.325C170.242 169.337 166.764 161.387 164.28 155.424C162.292 150.654 166.3 148.467 168.453 148.467L186.64 172.815Z" fill="#FFF0CD"/>
<path d="M187.634 175.485V178.778C184.155 178.778 182.665 181.263 181.671 182.753C180.677 184.244 167.758 203.623 163.286 210.082C159.708 215.25 156.329 217.536 151.36 217.536H95.7081C91.7329 217.536 90.0766 213.561 89.7454 211.573H151.36C156.826 211.573 157.323 210.082 160.801 206.604C164.28 203.126 170.739 192.194 173.224 186.728C175.708 181.263 174.217 174.306 173.224 172.318L173.224 172.318C172.23 170.33 167.758 161.387 165.273 155.424C163.286 150.654 167.095 149.461 169.249 149.461L186.624 172.472C187.279 173.34 187.634 174.397 187.634 175.485Z" fill="#FED883"/>
<path d="M204.528 194.679C204.528 181.958 192.603 178.447 186.64 178.281C185.149 178.281 183.658 179.772 182.168 181.759C180.975 183.349 170.739 198.985 165.77 206.604H169.745C176.205 199.648 181.671 194.679 186.64 194.679H204.528Z" fill="#FBBA32"/>
<circle cx="76.3292" cy="211.573" r="21.3665" fill="#721D47"/>
<circle cx="76.3292" cy="211.573" r="13.4162" fill="white"/>
<circle cx="76.3292" cy="211.573" r="7.45342" fill="#721D47"/>
<rect x="74.8385" y="197.163" width="2.98137" height="12.9193" fill="#721D47"/>
<rect x="91.6095" y="218.171" width="2.98137" height="12.9193" transform="rotate(118.179 91.6095 218.171)" fill="#721D47"/>
<rect width="2.98137" height="12.9193" transform="matrix(0.472228 0.881476 0.881476 -0.472228 60.9254 218.171)" fill="#721D47"/>
<rect x="69.8696" y="135.548" width="26.1482" height="26.1482" fill="#FFD1B5"/>
<rect x="96.0177" y="135.548" width="13.6684" height="26.1482" fill="#D79E7B"/>
<rect x="82.3493" y="135.548" width="0.594277" height="26.1482" fill="#D79E7B"/>
<rect x="101.366" y="135.548" width="2.97138" height="4.75421" fill="#FFEBDE"/>
<rect x="101.366" y="156.942" width="2.97138" height="4.75421" fill="#FFEBDE"/>
<path d="M154.342 136.045L131.484 132.567V142.505C137.845 142.902 148.71 142.67 153.348 142.505L154.342 136.045Z" fill="#F8975B"/>
<rect x="133.937" y="88.2024" width="15.3523" height="23.8747" rx="5" transform="rotate(21.9868 133.937 88.2024)" fill="#FFF2D1"/>
<rect x="124.015" y="117.342" width="13.3207" height="7.92049" rx="3.96024" transform="rotate(-63.0019 124.015 117.342)" fill="#FFF2D1"/>
<path d="M130.728 86.4005C123.462 87.8511 118.747 94.9174 120.198 102.184C121.413 108.27 126.569 112.566 132.481 112.948L136.278 98.9733L145.048 99.756L145.635 95.0786C144.37 88.744 136.989 85.1505 130.728 86.4005Z" fill="#126881"/>
<rect x="134.861" y="92.8926" width="16.0174" height="5.96273" rx="2.98137" transform="rotate(11.4247 134.861 92.8926)" fill="#FED883"/>
<circle cx="137.254" cy="96.2451" r="0.993789" transform="rotate(-11.2901 137.254 96.2451)" fill="#126881"/>
<rect x="134.692" y="200.09" width="5.04672" height="7.21225" transform="rotate(13.9767 134.692 200.09)" fill="#FFF2D1"/>
<path d="M147.882 140.517C145.099 140.915 142.747 141.345 141.919 142.008V146.977C143.907 146.977 145.894 145.983 146.888 144.492C147.882 143.002 150.367 143.002 151.857 143.995C153.348 144.989 154.839 143.995 154.342 143.002C153.845 142.008 151.36 140.02 147.882 140.517Z" fill="#FFF2D1"/>
<path d="M132.952 206.826C132.952 206.826 136.496 207.399 136.95 207.402C137.944 207.402 138.127 206.813 138.441 206.107C138.441 206.107 143.681 209.017 144.107 209.406C144.532 209.794 144.583 211.079 143.704 211.076C142.824 211.073 133.429 211.047 132.975 211.06C132.219 211.083 131.899 210.422 131.981 209.694C132.054 209.05 132.952 206.826 132.952 206.826Z" fill="#57636F"/>
<path d="M102.168 160.89V154.43H128.503C134.632 158.074 147.584 166.058 150.366 168.84C153.845 172.318 151.857 176.79 150.366 181.759C149.174 185.735 142.582 198.654 139.435 204.617L133.472 202.629C134.632 196.335 137.248 182.952 138.441 179.772C139.932 175.797 135.957 175.797 133.472 175.797C130.988 175.797 125.025 175.797 114.59 172.815C104.155 169.834 102.168 164.368 102.168 160.89Z" fill="#126881"/>
<path d="M132.478 118.157C128.503 116.169 126.847 113.354 126.516 112.194C111.112 116.169 101.671 134.058 100.18 140.517C98.9876 145.685 101.008 148.633 102.168 149.461C101.565 150.969 101.4 153.144 101.283 154.684L101.275 154.793C101.23 155.393 101.705 155.921 102.307 155.921H130.491V150.952C134.863 150.952 140.594 149.296 142.913 148.467V141.014H132.478V118.157Z" fill="#FFA771"/>
<path d="M139.578 110.897C138.78 110.893 137.443 110.376 138.474 108.34" stroke="#126881" stroke-width="0.3" stroke-linecap="round"/>
<path d="M139.381 104.806C140.125 104.504 140.91 104.835 141.212 105.579" stroke="#126881" stroke-width="0.3" stroke-linecap="round"/>
<path d="M139.647 101.093C140.689 100.813 141.866 101.31 142.394 102.251" stroke="#126881" stroke-width="0.3" stroke-linecap="round"/>
<path d="M143.94 108.707L143.178 105.735L141.59 109.645L143.537 109.325C143.827 109.277 144.013 108.991 143.94 108.707Z" fill="#FFF2D1"/>
<path d="M77 149.5L28 149.5" stroke="white" stroke-linecap="round"/>
<path d="M72 142.5L45 142.5" stroke="white" stroke-linecap="round"/>
<path d="M59 156.5L39 156.5" stroke="white" stroke-linecap="round"/>
</svg>
