<svg width="265" height="230" viewBox="0 0 265 230" fill="none" xmlns="http://www.w3.org/2000/svg">
<path d="M64.0571 229.94C64.0571 229.94 11.6427 214.124 14.0826 186.961C16.5226 159.797 38.5818 138.971 33.6521 94.4831C28.7224 49.995 63.4295 0.0136776 111.183 28.2036C158.936 56.3935 162.572 68.2852 201.362 67.259C240.152 66.2328 260.917 92.974 265 130.581C265 212.927 233.665 207.001 214.743 230C214.743 230 63.2604 228.974 64.0571 229.94Z" fill="#F6F6F7"/>
<rect x="90.4733" width="127.087" height="229.675" rx="20" fill="#57636F"/>
<rect x="96.9286" y="6.12466" width="114.837" height="217.426" rx="18" fill="white"/>
<path d="M200.667 25.6681C200.154 25.6681 199.731 26.0817 199.731 26.6031C199.731 27.1156 200.145 27.5381 200.667 27.5381C201.18 27.5381 201.603 27.1246 201.603 26.6031C201.594 26.0906 201.18 25.6681 200.667 25.6681Z" fill="#CDDEE6"/>
<path d="M202.314 21.2088C202.296 21.2088 202.269 21.1998 202.242 21.1998H196.572L196.482 20.5974C196.428 20.2019 196.087 19.9052 195.682 19.9052H194.953C194.755 19.9052 194.593 20.067 194.593 20.2648C194.593 20.4626 194.755 20.6244 194.953 20.6244H195.682C195.727 20.6244 195.763 20.6604 195.772 20.7053L196.329 24.4993C196.401 24.9758 196.815 25.3354 197.301 25.3354H201.045C201.513 25.3354 201.918 25.0028 202.017 24.5443L202.602 21.6224C202.638 21.4336 202.512 21.2448 202.314 21.2088Z" fill="#CDDEE6"/>
<path d="M198.372 26.5582C198.354 26.0637 197.94 25.6681 197.445 25.6681C196.923 25.6951 196.527 26.1266 196.545 26.6391C196.563 27.1335 196.968 27.5291 197.463 27.5291H197.481C197.994 27.5022 198.399 27.0706 198.372 26.5582Z" fill="#CDDEE6"/>
<path d="M133.629 6.12466H174.97V12.3117C174.97 13.9685 173.627 15.3117 171.97 15.3117H136.629C134.972 15.3117 133.629 13.9685 133.629 12.3117V6.12466Z" fill="#57636F"/>
<path d="M102.723 19.9052H110.781" stroke="#CDDEE6" stroke-width="0.5" stroke-linecap="round"/>
<path d="M102.723 23.795H110.693" stroke="#CDDEE6" stroke-width="0.5" stroke-linecap="round"/>
<path d="M102.723 27.561H107.903" stroke="#CDDEE6" stroke-width="0.5" stroke-linecap="round"/>
<path d="M187.314 21.3664C186.883 20.4867 185.981 19.9052 184.969 19.9052C183.521 19.9052 182.343 21.0752 182.343 22.5134C182.343 22.9042 182.427 23.2788 182.593 23.6281L182.348 24.8541C182.316 25.0102 182.454 25.1482 182.611 25.1173L183.853 24.8719C184.02 24.9512 184.193 25.0114 184.371 25.053C183.973 23.167 185.403 21.3968 187.314 21.3664Z" fill="#CDDEE6"/>
<path d="M189.732 25.5358C189.775 25.4454 189.812 25.3534 189.844 25.2598H189.836C190.395 23.6216 189.22 21.8999 187.485 21.8161C187.485 21.816 187.485 21.8159 187.485 21.8158C185.993 21.7471 184.753 22.9408 184.753 24.421C184.753 25.858 185.922 27.0271 187.36 27.0292C187.75 27.0286 188.124 26.9448 188.472 26.7796C189.833 27.0483 189.727 27.0292 189.758 27.0292C189.899 27.0292 190.005 26.8998 189.977 26.7618L189.732 25.5358Z" fill="#CDDEE6"/>
<rect x="102.723" y="182.209" width="30.6233" height="30.6233" rx="2" fill="#CDDEE6"/>
<rect x="171.625" y="182.209" width="30.6233" height="30.6233" rx="2" fill="#CDDEE6"/>
<rect x="136.408" y="182.209" width="30.6233" height="30.6233" rx="2" fill="#CDDEE6"/>
<circle r="5.35908" transform="matrix(-1 0 0 1 108.082 158.963)" fill="#CDDEE6"/>
<path d="M108.928 156.425L106.594 158.706L108.928 161.092" stroke="white" stroke-width="0.5" stroke-linecap="round" stroke-linejoin="round"/>
<circle cx="196.889" cy="158.963" r="5.35908" fill="#CDDEE6"/>
<path d="M196.043 156.425L198.377 158.706L196.043 161.092" stroke="white" stroke-width="0.5" stroke-linecap="round" stroke-linejoin="round"/>
<path d="M133.861 153.406V153.9C132.275 153.939 131.131 154.94 131.131 156.253C131.131 157.553 131.937 158.268 133.887 158.697V162.402C132.873 162.298 132.08 161.895 131.352 161.219C131.313 161.18 131.235 161.128 131.118 161.128C130.949 161.128 130.793 161.284 130.793 161.453C130.793 161.57 130.845 161.648 130.936 161.726C131.807 162.48 132.73 162.896 133.861 162.987V164.014C133.861 164.183 134.004 164.326 134.173 164.326C134.342 164.326 134.485 164.183 134.485 164.014V163C136.11 162.948 137.267 161.973 137.267 160.595C137.267 159.321 136.435 158.58 134.459 158.164V154.524C135.148 154.602 135.772 154.862 136.409 155.369C136.5 155.447 136.565 155.46 136.643 155.46C136.825 155.46 136.981 155.317 136.981 155.135C136.981 155.005 136.916 154.927 136.799 154.836C136.097 154.316 135.421 154.004 134.485 153.926V153.406C134.485 153.237 134.342 153.094 134.173 153.094C134.004 153.094 133.861 153.237 133.861 153.406ZM136.604 160.647C136.604 161.635 135.759 162.389 134.459 162.415V158.827C136.149 159.204 136.604 159.75 136.604 160.647ZM131.794 156.201C131.794 155.265 132.626 154.511 133.887 154.485V158.034C132.21 157.631 131.794 157.085 131.794 156.201ZM141.308 163C142.088 163 142.894 162.688 143.492 162.103C144.103 161.505 144.389 160.699 144.389 159.919C144.389 159.113 144.103 158.333 143.492 157.735C142.894 157.124 142.114 156.838 141.321 156.838C140.775 156.838 140.242 156.981 139.774 157.254L140.099 154.55H144.064C144.246 154.55 144.389 154.42 144.389 154.225C144.389 154.043 144.246 153.9 144.064 153.9H139.826C139.748 153.9 139.67 153.926 139.618 153.978C139.54 154.03 139.488 154.108 139.488 154.212L139.046 157.878C139.046 157.904 139.033 157.93 139.033 157.943C139.033 157.982 139.033 158.021 139.046 158.047C139.046 158.06 139.046 158.073 139.059 158.086V158.099C139.072 158.138 139.098 158.177 139.137 158.203C139.254 158.333 139.462 158.333 139.592 158.203C140.073 157.722 140.684 157.488 141.321 157.488C141.945 157.488 142.569 157.722 143.037 158.19C143.505 158.658 143.739 159.282 143.739 159.919C143.739 160.543 143.505 161.154 143.024 161.635C142.543 162.116 141.932 162.35 141.308 162.35C140.684 162.35 140.073 162.116 139.592 161.648C139.462 161.518 139.254 161.518 139.124 161.648C138.994 161.765 138.994 161.973 139.124 162.103C139.722 162.701 140.515 163 141.308 163ZM146.88 156.89C146.88 158.567 148.232 159.893 149.883 159.893C150.793 159.893 151.599 159.516 152.145 158.892C152.028 159.542 151.807 160.166 151.495 160.712C150.936 161.661 150.104 162.311 148.843 162.363C148.661 162.376 148.531 162.519 148.531 162.701C148.531 162.87 148.674 163 148.856 163H148.869C150.364 162.948 151.43 162.103 152.054 161.024C152.665 159.945 152.925 158.606 152.925 157.397C152.925 157.124 152.912 156.864 152.899 156.617C152.886 156.591 152.886 156.578 152.873 156.552C152.704 155.057 151.443 153.9 149.883 153.9C148.232 153.9 146.88 155.239 146.88 156.89ZM149.883 159.256C148.583 159.256 147.517 158.216 147.517 156.89C147.517 155.59 148.583 154.537 149.883 154.537C151.209 154.537 152.262 155.59 152.262 156.89C152.262 158.216 151.209 159.256 149.883 159.256ZM154.937 164.17C154.937 164.3 155.041 164.365 155.132 164.365C155.249 164.365 155.574 164.183 155.808 163.949C156.042 163.715 156.159 163.325 156.159 162.597V162.272C156.159 162.025 155.977 161.843 155.73 161.843C155.483 161.843 155.301 162.025 155.301 162.272V162.545C155.301 162.805 155.457 162.948 155.652 163C155.691 163.455 155.509 163.741 155.041 164.001C154.976 164.04 154.937 164.105 154.937 164.17ZM158.089 156.89C158.089 158.567 159.441 159.893 161.092 159.893C162.002 159.893 162.808 159.516 163.354 158.892C163.237 159.542 163.016 160.166 162.704 160.712C162.145 161.661 161.313 162.311 160.052 162.363C159.87 162.376 159.74 162.519 159.74 162.701C159.74 162.87 159.883 163 160.065 163H160.078C161.573 162.948 162.639 162.103 163.263 161.024C163.874 159.945 164.134 158.606 164.134 157.397C164.134 157.124 164.121 156.864 164.108 156.617C164.095 156.591 164.095 156.578 164.082 156.552C163.913 155.057 162.652 153.9 161.092 153.9C159.441 153.9 158.089 155.239 158.089 156.89ZM161.092 159.256C159.792 159.256 158.726 158.216 158.726 156.89C158.726 155.59 159.792 154.537 161.092 154.537C162.418 154.537 163.471 155.59 163.471 156.89C163.471 158.216 162.418 159.256 161.092 159.256ZM166.43 156.89C166.43 158.567 167.782 159.893 169.433 159.893C170.343 159.893 171.149 159.516 171.695 158.892C171.578 159.542 171.357 160.166 171.045 160.712C170.486 161.661 169.654 162.311 168.393 162.363C168.211 162.376 168.081 162.519 168.081 162.701C168.081 162.87 168.224 163 168.406 163H168.419C169.914 162.948 170.98 162.103 171.604 161.024C172.215 159.945 172.475 158.606 172.475 157.397C172.475 157.124 172.462 156.864 172.449 156.617C172.436 156.591 172.436 156.578 172.423 156.552C172.254 155.057 170.993 153.9 169.433 153.9C167.782 153.9 166.43 155.239 166.43 156.89ZM169.433 159.256C168.133 159.256 167.067 158.216 167.067 156.89C167.067 155.59 168.133 154.537 169.433 154.537C170.759 154.537 171.812 155.59 171.812 156.89C171.812 158.216 170.759 159.256 169.433 159.256Z" fill="#435865"/>
<rect x="0.05" y="-0.05" width="56.5531" height="7.55583" rx="3.77791" transform="matrix(1 0 0 -1 118.034 27.461)" fill="white" stroke="#CDDEE6" stroke-width="0.1"/>
<circle r="1.56596" transform="matrix(-1 -8.74228e-08 -8.74228e-08 1 169.311 23.1523)" stroke="#CDDEE6" stroke-width="0.3"/>
<path d="M168.531 24.5934L167.907 25.5294" stroke="#CDDEE6" stroke-width="0.3" stroke-linecap="round"/>
<path d="M143.042 59.2889H144.676C145.228 59.2889 145.676 59.7367 145.676 60.2889V66.2844C145.676 66.9023 146.233 67.3673 146.851 67.3658C150.66 67.3565 153.66 70.3565 154.76 72.007V132.872C150.218 135.597 142.95 134.689 140.225 131.055C132.958 131.964 130.232 128.633 128.415 126.513C133.563 116.217 144.222 94.7178 145.676 91.0841C147.492 86.5419 145.676 81.9997 144.767 80.1829C143.859 78.366 142.042 74.7323 142.042 71.0986V60.287C142.042 59.7347 142.49 59.2889 143.042 59.2889Z" fill="#E4126B"/>
<path d="M165.57 59.2889H163.936C163.384 59.2889 162.936 59.7367 162.936 60.2889V66.2844C162.936 66.9023 162.378 67.3673 161.76 67.3658C157.951 67.3565 154.952 70.3565 153.852 72.007V132.872C158.394 135.597 165.661 134.689 168.386 131.055C175.654 131.964 178.379 128.633 180.196 126.513C175.048 116.217 164.389 94.7178 162.936 91.0841C161.119 86.5419 162.936 81.9997 163.844 80.1829C164.753 78.366 166.57 74.7323 166.57 71.0986V60.287C166.57 59.7347 166.122 59.2889 165.57 59.2889Z" fill="#E4126B"/>
<path d="M153.719 50.6144C153.909 50.532 154.125 50.532 154.315 50.6144L174.02 59.1471C174.767 59.4706 174.536 60.5854 173.722 60.5854H134.311C133.497 60.5854 133.266 59.4706 134.013 59.1471L153.719 50.6144Z" stroke="#7A8D9C" stroke-width="0.5"/>
<path d="M152.307 47.4923C152.307 46.9732 152.619 45.935 153.864 45.935C155.11 45.935 155.422 46.9732 155.422 47.4923C155.422 48.0114 155.11 49.0496 153.864 49.0496V50.4771" stroke="#7A8D9C" stroke-width="0.5" stroke-linecap="round"/>
<path d="M59 128C63.5 145.5 68 151.5 68 151.5L72.5001 174C83.0001 173.833 105.3 173.6 110.5 174C117 174.5 125 166.5 123.5 155.5C122 144.5 116.713 142.389 105 136C99.5 133 98.5 126 98.5 121C98.5 114.675 99.5 102.583 92 98C84.5 93.4167 77.8334 95.6667 74.5001 98C61 95.5 54.5 110.5 59 128Z" fill="#126881"/>
<rect x="66.6855" y="105.372" width="22.9183" height="33.7744" rx="10" fill="#FFF2D1"/>
<path d="M72.7166 123.466H89.6038V156.034C89.6038 160.697 85.8235 164.477 81.1602 164.477C76.497 164.477 72.7166 160.697 72.7166 156.034V123.466Z" fill="#FFF2D1"/>
<path d="M57.0357 206.092V195.236H77.5416V204.886C95.635 193.427 106.491 191.014 113.728 189.205C120.966 187.396 127.6 189.205 125.791 202.473C123.981 215.742 110.713 225.392 102.872 227.201C95.0319 229.01 82.9696 229.614 64.2731 229.01C45.5765 228.407 8.78664 220.567 4.56484 210.917C0.343049 201.267 4.56484 190.411 18.4365 191.617C29.5337 192.582 48.7932 201.669 57.0357 206.092Z" fill="#126881"/>
<path d="M56.4326 150.606C62.2225 144.816 69.299 142.966 72.7167 142.765C72.7167 153.621 75.9333 158.848 78.7478 164.477C78.7478 157.24 79.3509 156.637 85.382 152.415C90.2069 149.038 89.6038 144.575 89.6038 142.162C92.0163 142.363 97.9268 143.248 102.269 145.178C107.697 147.59 111.316 152.415 111.919 159.652C112.402 165.442 113.326 181.767 113.728 189.205C103.596 191.135 85.382 200.865 77.5416 205.489L73.9229 199.458L69.7011 206.092H57.0357V203.077C52.8139 203.68 47.989 201.267 47.989 195.236C47.989 189.205 49.1952 157.843 56.4326 150.606Z" fill="#FFA771"/>
<path d="M61.9755 163.874H71.9597C72.4075 163.874 72.8006 164.172 72.9222 164.603L78.9923 186.124C79.1723 186.762 78.6928 187.396 78.0299 187.396H68.0456C67.5979 187.396 67.2047 187.098 67.0832 186.667L61.013 165.146C60.8331 164.508 61.3125 163.874 61.9755 163.874Z" fill="#364D5B"/>
<path d="M60.6544 177.143L58.2419 179.555C58.2419 184.863 63.0669 187.798 65.4793 188.602C67.4897 187.999 71.8723 186.551 73.3198 185.586C74.7673 184.621 75.5312 182.772 75.7322 181.968L72.7167 180.158C71.5104 181.163 68.8567 183.174 67.8918 183.174C66.6855 183.174 66.6855 182.571 67.2886 181.968C67.8918 181.364 75.7322 177.143 75.1291 175.936C74.6466 174.971 72.5156 174.73 71.5104 174.73C69.7011 176.137 65.9618 178.952 65.4793 178.952C64.8762 178.952 64.8762 178.349 65.4793 177.746C65.9618 177.263 68.8969 175.132 70.3042 174.127L67.2886 172.318L63.67 175.333L62.4637 171.112C60.5338 171.112 60.4534 175.132 60.6544 177.143Z" fill="#FFF5DA"/>
<path d="M31.7049 198.252L66.0824 216.345" stroke="white" stroke-width="0.1"/>
<path d="M72.1135 213.933C73.1187 213.329 76.0941 212.003 79.954 211.52C84.7789 210.917 87.7945 209.108 92.6194 204.283C97.4443 199.458 102.269 193.427 107.094 192.22" stroke="white" stroke-width="0.1"/>
<path d="M99.2537 145.781C98.2485 145.781 96.2381 147.59 96.2381 154.827C96.2381 162.065 98.2485 176.097 99.2537 182.329" stroke="white" stroke-width="0.1"/>
<path d="M60.0512 159.049C60.0512 162.065 60.0512 168.82 60.0512 171.715" stroke="white" stroke-width="0.1"/>
<path d="M92.6194 145.781C92.8205 148.595 92.3782 155.189 89.0007 159.049C85.5831 158.044 78.7478 158.567 78.7478 168.699" stroke="white" stroke-width="0.1"/>
<path d="M71.5104 143.971C70.5053 144.977 68.4949 148.434 68.4949 154.224C69.9021 153.42 73.7266 152.556 75.1291 156.637C76.5799 160.859 78.5903 163.271 78.9923 165.684" stroke="white" stroke-width="0.1"/>
<path d="M49.7983 189.205L58.2419 179.555C58.0409 181.565 59.2069 186.189 65.4793 188.602C65.0772 190.612 63.7906 195.357 61.8606 198.252" stroke="white" stroke-width="0.1" stroke-linejoin="round"/>
<path d="M67.8917 217.551L63.6699 229.01C74.9532 230.077 81.1375 229.966 92.0163 229.01C92.4183 227.603 92.74 224.547 90.81 223.582C88.8801 222.617 74.727 219.16 67.8917 217.551Z" fill="#FFF2D1"/>
<path d="M78.7478 186.189C78.5467 187.597 77.7828 190.894 76.3353 192.824C74.526 195.236 73.9229 196.442 73.9229 197.649" stroke="white" stroke-width="0.1"/>
<path d="M85.7782 175.936L87.5875 177.746L84.572 184.983C83.9689 184.782 83.0039 184.38 81.5564 184.38H74.319C71.9066 184.38 71.3035 183.777 70.7004 182.571C70.2179 181.606 70.4993 180.56 70.7004 180.158C70.0972 179.756 68.6498 178.59 67.6848 177.143C66.4786 175.333 68.2879 174.73 68.891 175.333C69.4941 175.936 72.5097 177.746 73.7159 178.349C74.9222 178.952 75.5253 177.746 74.9222 177.143C74.3191 176.54 67.6848 173.524 66.4786 172.921C65.2723 172.318 65.2723 171.111 65.8755 170.508C66.3579 170.026 67.2827 169.905 67.6848 169.905C68.2879 168.096 70.7004 168.699 71.3035 169.302C71.9066 169.905 75.5253 171.111 76.1284 171.111C76.7315 171.111 77.9377 171.715 77.9377 171.111C77.9377 170.508 77.9377 170.508 76.7315 170.508C75.5253 170.508 74.9221 169.302 75.5253 168.699C76.1284 168.096 78.5408 168.096 79.747 168.096C80.9533 168.096 80.9533 168.699 82.7626 170.508C84.2101 171.956 85.3761 174.73 85.7782 175.936Z" fill="#FFF5DA"/>
<path d="M105.888 186.189C103.878 184.983 98.8918 182.088 95.0318 180.158C91.1719 178.228 88.5986 177.344 87.7945 177.143L83.5727 187.999C86.1862 189.607 91.775 193.065 93.2225 194.03" stroke="white" stroke-width="0.1"/>
<path d="M72.1135 203.68C71.7115 205.087 71.0279 208.746 71.5104 212.123" stroke="white" stroke-width="0.1"/>
<rect x="66.6855" y="165.684" width="1.20623" height="1.20623" rx="0.603114" fill="#E3E3E3"/>
<path d="M71.755 110.8C76.5799 117.073 86.2297 117.836 90.4515 117.434C90.4515 105.372 81.6058 103.161 77.183 103.563C66.0857 103.563 64.9197 112.811 65.7238 117.434C69.1013 115.504 71.1519 112.207 71.755 110.8Z" fill="#126881"/>
<path d="M70.5488 122.862C71.3529 122.058 72.5591 122.058 73.3632 122.862" stroke="#126881" stroke-width="0.3" stroke-linecap="round"/>
<path d="M69.3425 119.244C70.3764 118.44 71.9273 118.44 72.9612 119.244" stroke="#126881" stroke-width="0.3" stroke-linecap="round"/>
<path d="M81.4048 119.244C82.4387 118.44 83.9896 118.44 85.0235 119.244" stroke="#126881" stroke-width="0.3" stroke-linecap="round"/>
<path d="M81.4048 122.862C82.2089 122.058 83.4152 122.058 84.2193 122.862" stroke="#126881" stroke-width="0.3" stroke-linecap="round"/>
<path d="M77.1829 121.053L74.5216 127.973C74.3252 128.483 74.5756 129.057 75.0836 129.26L77.1829 130.1" stroke="#126881" stroke-width="0.3" stroke-linecap="round"/>
<path d="M76.6109 133.121C77.8171 133.724 80.2295 133.965 80.2295 130.105" stroke="#126881" stroke-width="0.3" stroke-linecap="round"/>
<rect x="185.858" y="184.821" width="44.6996" height="44.6996" fill="#FFD1B5"/>
<rect x="230.557" y="184.821" width="23.3657" height="44.6996" fill="#D79E7B"/>
<rect x="207.192" y="184.821" width="1.0159" height="44.6996" fill="#D79E7B"/>
<rect x="239.7" y="184.821" width="5.0795" height="8.12721" fill="#FFEBDE"/>
<rect x="239.7" y="221.394" width="5.0795" height="8.12721" fill="#FFEBDE"/>
<path d="M44.3032 199.538C44.5341 199.538 44.7555 199.446 44.9187 199.283C45.0819 199.12 45.1736 198.898 45.1736 198.667V189.964C45.1736 188.348 45.8155 186.798 46.958 185.656C48.1006 184.513 49.6502 183.871 51.266 183.871C52.8819 183.871 54.4315 184.513 55.5741 185.656C56.7166 186.798 57.3585 188.348 57.3585 189.964V198.667C57.3585 198.898 57.4502 199.12 57.6134 199.283C57.7766 199.446 57.998 199.538 58.2288 199.538C58.4597 199.538 58.6811 199.446 58.8443 199.283C59.0075 199.12 59.0992 198.898 59.0992 198.667V189.964C59.0992 187.886 58.2739 185.894 56.8049 184.425C55.3359 182.956 53.3435 182.131 51.266 182.131C49.1886 182.131 47.1962 182.956 45.7272 184.425C44.2582 185.894 43.4329 187.886 43.4329 189.964V198.667C43.4329 198.898 43.5246 199.12 43.6878 199.283C43.851 199.446 44.0724 199.538 44.3032 199.538Z" fill="#FED883"/>
<path d="M45.5313 230H75.1232L73.3825 195.186H47.272L45.5313 230Z" fill="#FF819F"/>
<path d="M38.5685 230H45.5313L47.272 195.186H40.3092L38.5685 230Z" fill="#F55F84"/>
<path d="M24.6429 230H31.6057L31.7145 228.593V228.592L33.3464 207.371H26.3836L24.7789 228.226V228.227L24.6429 230Z" fill="#55B7D6"/>
<path d="M31.6057 230H54.2348L52.4941 207.371H33.3464L31.6057 230Z" fill="#7BCFE9"/>
<path d="M42.0499 223.908H43.7906C44.9443 223.906 46.0505 223.447 46.8663 222.632C47.6821 221.816 48.141 220.71 48.1423 219.556V212.593C48.1423 212.362 48.0506 212.141 47.8874 211.978C47.7242 211.814 47.5028 211.723 47.272 211.723C47.0411 211.723 46.8198 211.814 46.6565 211.978C46.4933 212.141 46.4016 212.362 46.4016 212.593V219.556C46.4008 220.248 46.1255 220.912 45.636 221.401C45.1465 221.891 44.4828 222.166 43.7906 222.167H42.0499C41.3576 222.166 40.6939 221.891 40.2044 221.401C39.7149 220.912 39.4396 220.248 39.4388 219.556V212.593C39.4388 212.362 39.3471 212.141 39.1839 211.978C39.0207 211.814 38.7993 211.723 38.5685 211.723C38.3376 211.723 38.1163 211.814 37.953 211.978C37.7898 212.141 37.6981 212.362 37.6981 212.593V219.556C37.6994 220.71 38.1583 221.816 38.9741 222.632C39.79 223.447 40.8961 223.906 42.0499 223.908Z" fill="white"/>
<path d="M66.4197 199.538C66.6505 199.538 66.8719 199.446 67.0351 199.283C67.1983 199.12 67.29 198.898 67.29 198.667V189.964C67.29 187.886 66.4648 185.894 64.9958 184.425C63.5268 182.956 61.5344 182.131 59.4569 182.131C57.3794 182.131 55.387 182.956 53.918 184.425C52.449 185.894 51.6237 187.886 51.6237 189.964V198.667C51.6237 198.898 51.7154 199.12 51.8787 199.283C52.0419 199.446 52.2633 199.538 52.4941 199.538C52.7249 199.538 52.9463 199.446 53.1095 199.283C53.2727 199.12 53.3644 198.898 53.3644 198.667V189.964C53.3644 188.348 54.0063 186.798 55.1489 185.656C56.2914 184.513 57.8411 183.871 59.4569 183.871C61.0727 183.871 62.6223 184.513 63.7649 185.656C64.9075 186.798 65.5493 188.348 65.5493 189.964V198.667C65.5493 198.898 65.641 199.12 65.8043 199.283C65.9675 199.446 66.1889 199.538 66.4197 199.538Z" fill="#FEF79C"/>
<path d="M197.163 229.394H190.201L190.092 227.987V227.986L188.46 206.765H195.423L197.027 227.62V227.621L197.163 229.394Z" fill="#B4CA44"/>
<path d="M190.201 229.394H167.571L169.312 206.765H188.46L190.201 229.394Z" fill="#C7DC5B"/>
<path d="M179.756 223.302H178.016C176.862 223.3 175.756 222.841 174.94 222.026C174.124 221.21 173.665 220.104 173.664 218.95V211.987C173.664 211.756 173.756 211.535 173.919 211.372C174.082 211.208 174.303 211.117 174.534 211.117C174.765 211.117 174.986 211.208 175.15 211.372C175.313 211.535 175.405 211.756 175.405 211.987V218.95C175.405 219.642 175.681 220.306 176.17 220.795C176.66 221.285 177.323 221.56 178.016 221.561H179.756C180.449 221.56 181.112 221.285 181.602 220.795C182.091 220.306 182.367 219.642 182.367 218.95V211.987C182.367 211.756 182.459 211.535 182.622 211.372C182.786 211.208 183.007 211.117 183.238 211.117C183.469 211.117 183.69 211.208 183.853 211.372C184.016 211.535 184.108 211.756 184.108 211.987V218.95C184.107 220.104 183.648 221.21 182.832 222.026C182.016 222.841 180.91 223.3 179.756 223.302Z" fill="white"/>
<path d="M54.4591 81.4643L54.4591 101.734C54.4591 102.127 54.5055 102.518 54.5971 102.9L56.7878 112.031C57.124 113.433 55.9129 114.719 54.494 114.467L45.5233 112.878C45.2152 112.823 44.9026 112.798 44.5897 112.801L10.1223 113.223C4.55204 113.291 5.42514e-07 108.794 1.02952e-06 103.224L2.93178e-06 81.4643C3.41461e-06 75.9414 4.47716 71.4643 10 71.4643L44.4591 71.4643C49.982 71.4643 54.4591 75.9414 54.4591 81.4643Z" fill="#FED883"/>
<path d="M204.125 184.821H248.482" stroke="white" stroke-width="0.1"/>
<path d="M188.929 211.929L189.75 224.25" stroke="white" stroke-width="0.1"/>
<path d="M47.2321 197.964L46.8214 206.179" stroke="white" stroke-width="0.1"/>
<path d="M52.9822 211.518L54.2143 227.536" stroke="white" stroke-width="0.1"/>
<path d="M32.8572 212.339L31.625 227.125" stroke="white" stroke-width="0.1"/>
<path d="M230.411 195.5V220.554" stroke="white" stroke-width="0.1"/>
<path d="M220.964 166.75V180.714" stroke="white" stroke-width="0.1"/>
<path d="M13.9927 98.725C15.0357 97.5384 20.8642 95.5111 21.5256 95.2834C21.6113 95.2541 21.7044 95.2537 21.7918 95.2826C22.5562 95.5393 23.2255 95.6696 23.8393 95.6808C24.3778 95.6957 25.1666 95.5976 25.8227 95.0997C26.4258 94.6419 26.7962 93.8712 27.0967 93.1842C27.5094 92.2413 27.9481 91.3001 28.3727 90.3895L28.8032 89.4653C29.4071 88.1611 29.9236 86.9691 30.3814 85.8214C31.3297 83.4444 32.8317 81.6911 33.6425 80.8575C34.2195 80.2648 35.164 80.2164 35.7935 80.7478C35.9571 80.8857 36.1168 81.0277 36.2724 81.1741C37.2687 82.1104 37.9359 83.035 38.3125 84.0019C38.815 85.2903 38.6313 86.7721 38.469 88.0796L38.4615 88.1404C38.3088 89.3705 38.2119 90.635 38.1267 91.7504C38.019 93.1639 37.9371 94.5964 37.8829 96.007L37.8539 96.7052C37.8328 97.1932 37.8113 97.6862 37.8022 98.1663C37.7972 98.4213 37.7993 99.1609 37.8009 99.7093L37.8022 100.228C37.8022 100.456 37.6172 100.642 37.3883 100.642H35.7327C35.5043 100.642 35.3192 100.438 35.3188 100.209C35.3185 99.8719 35.311 95.1664 35.3188 93.19C35.3197 92.9607 35.3234 92.7591 35.3263 92.5753C35.3404 91.7558 35.3474 91.3444 35.0979 90.3929C34.9853 89.9637 34.7874 89.6077 34.6049 89.508C34.5639 89.4852 34.5122 89.4683 34.4257 89.4964C34.0847 89.6057 33.7833 90.1239 33.5805 90.4719C33.3106 90.9355 33.0582 91.4756 32.7858 92.1722C32.7747 92.2 32.7457 92.2803 32.7014 92.4028C31.2908 96.264 30.2569 98.5508 29.6282 99.199C28.7383 100.116 27.4801 100.642 26.1767 100.642H20.9529C17.9405 100.606 14.2639 100.369 13.8541 99.4493C13.8036 99.3364 13.7166 99.0392 13.9927 98.725Z" fill="#B71C46"/>
</svg>
